<svg
  width="1200"
  height="1080"
  viewBox="0 0 1200 1080"
  xmlns="http://www.w3.org/2000/svg"
  role="img"
  aria-labelledby="title desc"
>
  <title id="title">Cube Pets Office Architecture</title>
  <desc id="desc">
    Product architecture overview for Cube Pets Office updated on 2026-04-21.
    It shows the primary entry surfaces, frontend mission-first office cockpit,
    server-side cube brain, intelligence and trust layers, executor modes,
    interop, workflow pipeline, and the separation between browser preview
    runtime and advanced local runtime.
  </desc>

  <style>
    .ts {
      font-family: "Segoe UI", "PingFang SC", "Microsoft YaHei", system-ui, -apple-system, sans-serif;
      font-size: 12px;
      fill: #0f172a;
    }
    .th {
      font-family: "Segoe UI", "PingFang SC", "Microsoft YaHei", system-ui, -apple-system, sans-serif;
      font-size: 14px;
      font-weight: 700;
      fill: #0f172a;
    }
    .sm {
      font-family: "Segoe UI", "PingFang SC", "Microsoft YaHei", system-ui, -apple-system, sans-serif;
      font-size: 10px;
      fill: #475569;
    }
    .xs {
      font-family: "Segoe UI", "PingFang SC", "Microsoft YaHei", system-ui, -apple-system, sans-serif;
      font-size: 9px;
      fill: #64748b;
    }
    .fl {
      font-family: "Segoe UI", "PingFang SC", "Microsoft YaHei", system-ui, -apple-system, sans-serif;
      font-size: 8.5px;
      letter-spacing: 0.02em;
      fill: #475569;
    }
  </style>

  <defs>
    <marker
      id="a"
      viewBox="0 0 10 10"
      refX="8"
      refY="5"
      markerWidth="6"
      markerHeight="6"
      orient="auto-start-reverse"
    >
      <path
        d="M2 1L8 5L2 9"
        fill="none"
        stroke="context-stroke"
        stroke-width="1.5"
        stroke-linecap="round"
        stroke-linejoin="round"
      />
    </marker>
  </defs>

  <rect x="0" y="0" width="1200" height="1080" fill="#f8fafc" />

  <!-- ==================== ROW 0: ENTRY + FRONTEND ==================== -->

  <!-- Entry -->
  <rect x="20" y="20" width="150" height="98" rx="14" fill="#f8fafc" stroke="#d4d4d8" stroke-width="0.8" />
  <text class="th" x="95" y="42" text-anchor="middle" fill="#52525b">Entry</text>
  <circle cx="56" cy="68" r="10" fill="none" stroke="#534ab7" stroke-width="1.2" />
  <circle cx="56" cy="62" r="4" fill="none" stroke="#534ab7" stroke-width="1" />
  <path d="M44 78Q56 86 68 78" fill="none" stroke="#534ab7" stroke-width="1" />
  <text class="ts" x="56" y="96" text-anchor="middle" fill="#3c3489">User query</text>
  <rect x="104" y="54" width="52" height="24" rx="6" fill="#eeedfe" stroke="#534ab7" stroke-width="0.6" />
  <text class="ts" x="130" y="70" text-anchor="middle" fill="#3c3489">Feishu</text>
  <text class="xs" x="130" y="92" text-anchor="middle" fill="#7c3aed">Relay</text>
  <line x1="170" y1="66" x2="196" y2="66" stroke="#534ab7" stroke-width="1" marker-end="url(#a)" />

  <!-- Frontend -->
  <rect x="198" y="20" width="962" height="98" rx="14" fill="#e6f1fb" stroke="#85b7eb" stroke-width="0.8" />
  <text class="th" x="679" y="42" text-anchor="middle" fill="#0c447c">
    Frontend - office shell + mission-first cockpit + single primary launch dock + overlays
  </text>

  <rect x="214" y="50" width="92" height="38" rx="8" fill="#ffffff" stroke="#85b7eb" stroke-width="0.6" />
  <text class="ts" x="260" y="65" text-anchor="middle" fill="#0c447c">Office shell</text>
  <text class="sm" x="260" y="80" text-anchor="middle" fill="#185fa5">desktop default</text>

  <rect x="316" y="50" width="92" height="38" rx="8" fill="#ffffff" stroke="#85b7eb" stroke-width="0.6" />
  <text class="ts" x="362" y="65" text-anchor="middle" fill="#0c447c">Task queue</text>
  <text class="sm" x="362" y="80" text-anchor="middle" fill="#185fa5">mission list + live</text>

  <rect x="418" y="50" width="92" height="38" rx="8" fill="#ffffff" stroke="#85b7eb" stroke-width="0.6" />
  <text class="ts" x="464" y="65" text-anchor="middle" fill="#0c447c">Unified launch</text>
  <text class="sm" x="464" y="80" text-anchor="middle" fill="#185fa5">bottom primary input</text>

  <rect x="520" y="50" width="92" height="38" rx="8" fill="#ffffff" stroke="#85b7eb" stroke-width="0.6" />
  <text class="ts" x="566" y="65" text-anchor="middle" fill="#0c447c">Detail tabs</text>
  <text class="sm" x="566" y="80" text-anchor="middle" fill="#185fa5">task + ctx + Launch guide</text>

  <rect x="622" y="50" width="92" height="38" rx="8" fill="#ffffff" stroke="#85b7eb" stroke-width="0.6" />
  <text class="ts" x="668" y="65" text-anchor="middle" fill="#0c447c">Scene3D</text>
  <text class="sm" x="668" y="80" text-anchor="middle" fill="#185fa5">main scene + wall HUD</text>

  <rect x="724" y="50" width="92" height="38" rx="8" fill="#ffffff" stroke="#85b7eb" stroke-width="0.6" />
  <text class="ts" x="770" y="65" text-anchor="middle" fill="#0c447c">History</text>
  <text class="sm" x="770" y="80" text-anchor="middle" fill="#185fa5">sessions + DAG</text>

  <rect x="826" y="50" width="92" height="38" rx="8" fill="#ffffff" stroke="#85b7eb" stroke-width="0.6" />
  <text class="ts" x="872" y="65" text-anchor="middle" fill="#0c447c">Reports</text>
  <text class="sm" x="872" y="80" text-anchor="middle" fill="#185fa5">memory + audit</text>

  <rect x="928" y="50" width="92" height="38" rx="8" fill="#ffffff" stroke="#85b7eb" stroke-width="0.6" />
  <text class="ts" x="974" y="65" text-anchor="middle" fill="#0c447c">Overlays</text>
  <text class="sm" x="974" y="80" text-anchor="middle" fill="#185fa5">chat + telemetry</text>

  <rect x="1030" y="50" width="92" height="38" rx="8" fill="#ffffff" stroke="#85b7eb" stroke-width="0.6" />
  <text class="ts" x="1076" y="65" text-anchor="middle" fill="#0c447c">Browser RT</text>
  <text class="sm" x="1076" y="80" text-anchor="middle" fill="#185fa5">IndexedDB + preview</text>

  <!-- ==================== FLOW: Frontend ↔ Brain ==================== -->

  <path d="M464 88 L464 134 L360 134 L360 164" fill="none" stroke="#185fa5" stroke-width="1" marker-end="url(#a)" />
  <rect x="372" y="126" width="94" height="14" rx="4" fill="#e6f1fb" />
  <text class="fl" x="419" y="136" text-anchor="middle" fill="#185fa5">① primary launch cmd</text>

  <path d="M260 118 L260 136 L288 136 L288 164" fill="none" stroke="#3b6d11" stroke-width="1" marker-end="url(#a)" />
  <rect x="210" y="126" width="82" height="14" rx="4" fill="#eaf3de" />
  <text class="fl" x="251" y="136" text-anchor="middle" fill="#3b6d11">② cockpit sync</text>

  <path d="M566 88 L566 134 L508 134 L508 164" fill="none" stroke="#185fa5" stroke-width="0.8" stroke-dasharray="4 3" marker-end="url(#a)" />
  <rect x="514" y="126" width="96" height="14" rx="4" fill="#e6f1fb" />
  <text class="fl" x="562" y="136" text-anchor="middle" fill="#185fa5">③ actions + guide</text>

  <!-- ==================== ROW 1: CUBE BRAIN + INTELLIGENCE ==================== -->

  <rect x="198" y="164" width="356" height="320" rx="16" fill="#eaf3de" stroke="#97c459" stroke-width="0.8" />
  <text class="th" x="376" y="188" text-anchor="middle" fill="#27500a">Cube brain (server)</text>

  <rect x="216" y="202" width="138" height="42" rx="8" fill="#ffffff" stroke="#97c459" stroke-width="0.6" />
  <text class="ts" x="285" y="219" text-anchor="middle" fill="#27500a">Express API</text>
  <text class="sm" x="285" y="235" text-anchor="middle" fill="#3b6d11">REST + Socket.IO</text>

  <rect x="216" y="254" width="138" height="42" rx="8" fill="#ffffff" stroke="#97c459" stroke-width="0.6" />
  <text class="ts" x="285" y="271" text-anchor="middle" fill="#27500a">Dynamic org</text>
  <text class="sm" x="285" y="287" text-anchor="middle" fill="#3b6d11">CEO / manager / worker</text>

  <rect x="216" y="306" width="138" height="42" rx="8" fill="#ffffff" stroke="#97c459" stroke-width="0.6" />
  <text class="ts" x="285" y="323" text-anchor="middle" fill="#27500a">10-stage engine</text>
  <text class="sm" x="285" y="339" text-anchor="middle" fill="#3b6d11">workflow pipeline</text>

  <rect x="216" y="358" width="138" height="42" rx="8" fill="#ffffff" stroke="#97c459" stroke-width="0.6" />
  <text class="ts" x="285" y="375" text-anchor="middle" fill="#27500a">Mission runtime</text>
  <text class="sm" x="285" y="391" text-anchor="middle" fill="#3b6d11">FSM + controls + step flow</text>

  <rect x="216" y="410" width="138" height="42" rx="8" fill="#ffffff" stroke="#97c459" stroke-width="0.6" />
  <text class="ts" x="285" y="427" text-anchor="middle" fill="#27500a">Executor bridge</text>
  <text class="sm" x="285" y="443" text-anchor="middle" fill="#3b6d11">dispatch + callbacks + evidence</text>

  <rect x="398" y="202" width="138" height="42" rx="8" fill="#ffffff" stroke="#97c459" stroke-width="0.6" />
  <text class="ts" x="467" y="219" text-anchor="middle" fill="#27500a">Skill system</text>
  <text class="sm" x="467" y="235" text-anchor="middle" fill="#3b6d11">hot-plug registry</text>

  <rect x="398" y="254" width="138" height="42" rx="8" fill="#ffffff" stroke="#97c459" stroke-width="0.6" />
  <text class="ts" x="467" y="271" text-anchor="middle" fill="#27500a">Role system</text>
  <text class="sm" x="467" y="287" text-anchor="middle" fill="#3b6d11">dynamic switch</text>

  <rect x="398" y="306" width="138" height="42" rx="8" fill="#ffffff" stroke="#97c459" stroke-width="0.6" />
  <text class="ts" x="467" y="323" text-anchor="middle" fill="#27500a">Cost governance</text>
  <text class="sm" x="467" y="339" text-anchor="middle" fill="#3b6d11">budget + alert ladder</text>

  <rect x="398" y="358" width="138" height="42" rx="8" fill="#ffffff" stroke="#97c459" stroke-width="0.6" />
  <text class="ts" x="467" y="375" text-anchor="middle" fill="#27500a">Review system</text>
  <text class="sm" x="467" y="391" text-anchor="middle" fill="#3b6d11">score + revise loop</text>

  <rect x="398" y="410" width="138" height="42" rx="8" fill="#ffffff" stroke="#97c459" stroke-width="0.6" />
  <text class="ts" x="467" y="427" text-anchor="middle" fill="#27500a">Permission</text>
  <text class="sm" x="467" y="443" text-anchor="middle" fill="#3b6d11">RBAC + capability checks</text>

  <line x1="354" y1="327" x2="396" y2="327" stroke="#97c459" stroke-width="0.9" marker-end="url(#a)" />
  <line x1="354" y1="275" x2="396" y2="275" stroke="#97c459" stroke-width="0.9" marker-end="url(#a)" />
  <path d="M467 358 L467 352 L354 352 L354 348" fill="none" stroke="#3b6d11" stroke-width="0.8" stroke-dasharray="3 2" marker-end="url(#a)" />
  <text class="fl" x="412" y="350" text-anchor="middle" fill="#3b6d11">score feedback</text>

  <!-- Intelligence -->
  <rect x="584" y="164" width="436" height="204" rx="16" fill="#faeeda" stroke="#fac775" stroke-width="0.8" />
  <text class="th" x="802" y="188" text-anchor="middle" fill="#412402">Intelligence layer</text>

  <rect x="602" y="202" width="120" height="42" rx="8" fill="#ffffff" stroke="#fac775" stroke-width="0.6" />
  <text class="ts" x="662" y="219" text-anchor="middle" fill="#633806">3-tier memory</text>
  <text class="sm" x="662" y="235" text-anchor="middle" fill="#854f0b">short / mid / long</text>

  <rect x="602" y="254" width="120" height="42" rx="8" fill="#ffffff" stroke="#fac775" stroke-width="0.6" />
  <text class="ts" x="662" y="271" text-anchor="middle" fill="#633806">Knowledge graph</text>
  <text class="sm" x="662" y="287" text-anchor="middle" fill="#854f0b">entity + relation</text>

  <rect x="602" y="306" width="120" height="42" rx="8" fill="#ffffff" stroke="#fac775" stroke-width="0.6" />
  <text class="ts" x="662" y="323" text-anchor="middle" fill="#633806">Vector DB + RAG</text>
  <text class="sm" x="662" y="339" text-anchor="middle" fill="#854f0b">context retrieval</text>

  <rect x="744" y="202" width="120" height="42" rx="8" fill="#ffffff" stroke="#fac775" stroke-width="0.6" />
  <text class="ts" x="804" y="219" text-anchor="middle" fill="#633806">Self-evolution</text>
  <text class="sm" x="804" y="235" text-anchor="middle" fill="#854f0b">persona refinement</text>

  <rect x="744" y="254" width="120" height="42" rx="8" fill="#ffffff" stroke="#fac775" stroke-width="0.6" />
  <text class="ts" x="804" y="271" text-anchor="middle" fill="#633806">Reputation</text>
  <text class="sm" x="804" y="287" text-anchor="middle" fill="#854f0b">score + decay</text>

  <rect x="744" y="306" width="120" height="42" rx="8" fill="#ffffff" stroke="#fac775" stroke-width="0.6" />
  <text class="ts" x="804" y="323" text-anchor="middle" fill="#633806">Autonomy</text>
  <text class="sm" x="804" y="339" text-anchor="middle" fill="#854f0b">self-eval + compete</text>

  <rect x="886" y="202" width="116" height="62" rx="8" fill="#eeedfe" stroke="#afa9ec" stroke-width="0.6" />
  <text class="ts" x="944" y="220" text-anchor="middle" fill="#3c3489">LLM provider</text>
  <text class="sm" x="944" y="238" text-anchor="middle" fill="#534ab7">OpenAI compatible</text>
  <text class="sm" x="944" y="254" text-anchor="middle" fill="#534ab7">multi-provider</text>

  <line x1="554" y1="223" x2="600" y2="223" stroke="#ba7517" stroke-width="1" marker-end="url(#a)" />
  <rect x="562" y="211" width="62" height="14" rx="4" fill="#faeeda" />
  <text class="fl" x="593" y="221" text-anchor="middle" fill="#854f0b">④ context</text>

  <line x1="554" y1="327" x2="600" y2="327" stroke="#ba7517" stroke-width="1" marker-end="url(#a)" />
  <rect x="562" y="315" width="72" height="14" rx="4" fill="#faeeda" />
  <text class="fl" x="598" y="325" text-anchor="middle" fill="#854f0b">⑤ RAG enrich</text>

  <line x1="864" y1="275" x2="884" y2="239" stroke="#534ab7" stroke-width="0.9" marker-end="url(#a)" />
  <text class="fl" x="888" y="272" fill="#534ab7">LLM calls</text>

  <path d="M804 244 L804 250 L722 250 L722 244" fill="none" stroke="#ba7517" stroke-width="0.8" marker-end="url(#a)" />
  <text class="fl" x="763" y="248" text-anchor="middle" fill="#854f0b">persona update</text>

  <line x1="804" y1="296" x2="804" y2="304" stroke="#ba7517" stroke-width="0.8" marker-end="url(#a)" />

  <!-- ==================== ROW 2: TRUST & COMPLIANCE ==================== -->

  <rect x="584" y="388" width="436" height="90" rx="16" fill="#f0e6ff" stroke="#b794f4" stroke-width="0.8" />
  <text class="th" x="802" y="412" text-anchor="middle" fill="#44337a">Trust and compliance</text>

  <rect x="602" y="424" width="120" height="40" rx="8" fill="#ffffff" stroke="#b794f4" stroke-width="0.6" />
  <text class="ts" x="662" y="441" text-anchor="middle" fill="#44337a">Audit chain</text>
  <text class="sm" x="662" y="456" text-anchor="middle" fill="#6b46c1">hash-linked log</text>

  <rect x="744" y="424" width="120" height="40" rx="8" fill="#ffffff" stroke="#b794f4" stroke-width="0.6" />
  <text class="ts" x="804" y="441" text-anchor="middle" fill="#44337a">Data lineage</text>
  <text class="sm" x="804" y="456" text-anchor="middle" fill="#6b46c1">DAG tracking</text>

  <rect x="886" y="424" width="116" height="40" rx="8" fill="#ffffff" stroke="#b794f4" stroke-width="0.6" />
  <text class="ts" x="944" y="441" text-anchor="middle" fill="#44337a">Anomaly detect</text>
  <text class="sm" x="944" y="456" text-anchor="middle" fill="#6b46c1">compliance map</text>

  <path d="M554 378 L582 378 L582 444 L600 444" fill="none" stroke="#6b46c1" stroke-width="1" marker-end="url(#a)" />
  <rect x="560" y="402" width="62" height="14" rx="4" fill="#f0e6ff" />
  <text class="fl" x="591" y="412" text-anchor="middle" fill="#6b46c1">⑥ audit evt</text>

  <path d="M554 398 L592 398 L592 444 L742 444" fill="none" stroke="#6b46c1" stroke-width="0.8" stroke-dasharray="4 3" marker-end="url(#a)" />
  <rect x="602" y="388" width="88" height="14" rx="4" fill="#f0e6ff" />
  <text class="fl" x="646" y="398" text-anchor="middle" fill="#6b46c1">⑦ data mutations</text>

  <path d="M662 424 L662 152 L872 152 L872 118" fill="none" stroke="#6b46c1" stroke-width="0.8" stroke-dasharray="4 3" marker-end="url(#a)" />
  <rect x="682" y="144" width="72" height="14" rx="4" fill="#f0e6ff" />
  <text class="fl" x="718" y="154" text-anchor="middle" fill="#6b46c1">⑧ audit stream</text>

  <path d="M804 424 L804 152 L770 152 L770 118" fill="none" stroke="#6b46c1" stroke-width="0.8" stroke-dasharray="4 3" marker-end="url(#a)" />
  <rect x="780" y="144" width="70" height="14" rx="4" fill="#f0e6ff" />
  <text class="fl" x="815" y="154" text-anchor="middle" fill="#6b46c1">⑨ lineage DAG</text>

  <!-- ==================== ROW 3: EXECUTION + INTEROP ==================== -->

  <rect x="198" y="514" width="560" height="136" rx="16" fill="#faece7" stroke="#f0997b" stroke-width="0.8" />
  <text class="th" x="478" y="538" text-anchor="middle" fill="#4a1b0c">Execution layer (real / native / mock)</text>

  <rect x="216" y="548" width="112" height="42" rx="8" fill="#ffffff" stroke="#f0997b" stroke-width="0.6" />
  <text class="ts" x="272" y="565" text-anchor="middle" fill="#712b13">Lobster exec</text>
  <text class="sm" x="272" y="581" text-anchor="middle" fill="#993c1d">runner dispatch</text>

  <rect x="338" y="548" width="112" height="42" rx="8" fill="#ffffff" stroke="#f0997b" stroke-width="0.6" />
  <text class="ts" x="394" y="565" text-anchor="middle" fill="#712b13">HMAC callback</text>
  <text class="sm" x="394" y="581" text-anchor="middle" fill="#993c1d">status + artifacts</text>

  <rect x="460" y="548" width="112" height="42" rx="8" fill="#ffffff" stroke="#f0997b" stroke-width="0.6" />
  <text class="ts" x="516" y="565" text-anchor="middle" fill="#712b13">Secure sandbox</text>
  <text class="sm" x="516" y="581" text-anchor="middle" fill="#993c1d">seccomp + caps</text>

  <rect x="582" y="548" width="112" height="42" rx="8" fill="#ffffff" stroke="#f0997b" stroke-width="0.6" />
  <text class="ts" x="638" y="565" text-anchor="middle" fill="#712b13">Live preview</text>
  <text class="sm" x="638" y="581" text-anchor="middle" fill="#993c1d">terminal + screenshot</text>

  <rect x="216" y="598" width="112" height="30" rx="6" fill="#eaf3de" stroke="#97c459" stroke-width="0.6" />
  <text class="ts" x="272" y="617" text-anchor="middle" fill="#27500a">DockerRunner</text>

  <rect x="338" y="598" width="112" height="30" rx="6" fill="#e6f1fb" stroke="#85b7eb" stroke-width="0.6" />
  <text class="ts" x="394" y="617" text-anchor="middle" fill="#0c447c">NativeRunner</text>

  <rect x="460" y="598" width="112" height="30" rx="6" fill="#eeedfe" stroke="#afa9ec" stroke-width="0.6" />
  <text class="ts" x="516" y="617" text-anchor="middle" fill="#3c3489">MockRunner</text>

  <rect x="582" y="598" width="112" height="30" rx="6" fill="#f8fafc" stroke="#d4d4d8" stroke-width="0.6" />
  <text class="ts" x="638" y="617" text-anchor="middle" fill="#52525b">Docker probe</text>

  <path d="M285 484 L285 512" fill="none" stroke="#d85a30" stroke-width="1" marker-end="url(#a)" />
  <rect x="246" y="494" width="60" height="14" rx="4" fill="#faece7" />
  <text class="fl" x="276" y="504" text-anchor="middle" fill="#993c1d">⑩ exec plan</text>

  <path d="M394 548 L394 502 L448 502 L448 484" fill="none" stroke="#d85a30" stroke-width="1" stroke-dasharray="4 3" marker-end="url(#a)" />
  <rect x="402" y="494" width="76" height="14" rx="4" fill="#faece7" />
  <text class="fl" x="440" y="504" text-anchor="middle" fill="#993c1d">⑪ status / cancel</text>

  <line x1="328" y1="569" x2="336" y2="569" stroke="#d85a30" stroke-width="0.9" marker-end="url(#a)" />
  <line x1="450" y1="569" x2="458" y2="569" stroke="#d85a30" stroke-width="0.9" marker-end="url(#a)" />
  <line x1="572" y1="569" x2="580" y2="569" stroke="#d85a30" stroke-width="0.9" marker-end="url(#a)" />

  <path d="M694 569 L716 569 L716 152 L1036 152 L1036 118" fill="none" stroke="#85b7eb" stroke-width="1" stroke-dasharray="4 3" marker-end="url(#a)" />
  <rect x="972" y="144" width="86" height="14" rx="4" fill="#e6f1fb" />
  <text class="fl" x="1015" y="154" text-anchor="middle" fill="#185fa5">⑫ terminal / preview</text>

  <path d="M516 548 L516 492 L574 492 L574 464 L600 464" fill="none" stroke="#6b46c1" stroke-width="0.8" stroke-dasharray="4 3" marker-end="url(#a)" />
  <rect x="520" y="474" width="82" height="14" rx="4" fill="#f0e6ff" />
  <text class="fl" x="561" y="484" text-anchor="middle" fill="#6b46c1">⑬ container audit</text>

  <!-- Interop -->
  <rect x="790" y="514" width="230" height="136" rx="16" fill="#e6fffa" stroke="#38b2ac" stroke-width="0.8" />
  <text class="th" x="905" y="538" text-anchor="middle" fill="#234e52">Interop layer</text>

  <rect x="804" y="548" width="202" height="36" rx="8" fill="#ffffff" stroke="#38b2ac" stroke-width="0.6" />
  <text class="ts" x="905" y="564" text-anchor="middle" fill="#234e52">A2A protocol server + client</text>
  <text class="sm" x="905" y="578" text-anchor="middle" fill="#2c7a7b">CrewAI / LangGraph / AutoGen adapters</text>

  <rect x="804" y="594" width="96" height="34" rx="8" fill="#ffffff" stroke="#38b2ac" stroke-width="0.6" />
  <text class="ts" x="852" y="610" text-anchor="middle" fill="#234e52">Swarm</text>
  <text class="sm" x="852" y="622" text-anchor="middle" fill="#2c7a7b">cross-pod</text>

  <rect x="910" y="594" width="96" height="34" rx="8" fill="#ffffff" stroke="#38b2ac" stroke-width="0.6" />
  <text class="ts" x="958" y="610" text-anchor="middle" fill="#234e52">Guest agent</text>
  <text class="sm" x="958" y="622" text-anchor="middle" fill="#2c7a7b">TTL sandbox</text>

  <line x1="900" y1="611" x2="908" y2="611" stroke="#38b2ac" stroke-width="0.7" stroke-dasharray="2 2" />

  <path d="M350 452 L350 496 L804 496 L804 554" fill="none" stroke="#38b2ac" stroke-width="1" marker-end="url(#a)" />
  <rect x="534" y="488" width="132" height="14" rx="4" fill="#e6fffa" />
  <text class="fl" x="600" y="498" text-anchor="middle" fill="#2c7a7b">⑭ A2A delegate + guest invite</text>

  <path d="M804 574 L780 574 L780 496 L538 496 L538 484" fill="none" stroke="#38b2ac" stroke-width="0.8" stroke-dasharray="4 3" marker-end="url(#a)" />
  <rect x="628" y="488" width="108" height="14" rx="4" fill="#e6fffa" />
  <text class="fl" x="682" y="498" text-anchor="middle" fill="#2c7a7b">⑮ external results</text>

  <!-- ==================== LEFT SIDEBAR: CONTRACTS + RUNNER ==================== -->

  <rect x="20" y="164" width="160" height="320" rx="14" fill="#fbeaf0" stroke="#ed93b1" stroke-width="0.8" />
  <text class="th" x="100" y="188" text-anchor="middle" fill="#4b1528">Shared contracts</text>
  <text class="ts" x="34" y="212" fill="#72243e">cost.ts</text>
  <text class="ts" x="34" y="230" fill="#72243e">cost-governance.ts</text>
  <text class="ts" x="34" y="248" fill="#72243e">llm/contracts.ts</text>
  <text class="ts" x="34" y="266" fill="#72243e">rag/contracts.ts</text>
  <text class="ts" x="34" y="284" fill="#72243e">skill/contracts.ts</text>
  <text class="ts" x="34" y="302" fill="#72243e">export/contracts.ts</text>
  <text class="ts" x="34" y="320" fill="#72243e">audit/contracts.ts</text>
  <text class="ts" x="34" y="338" fill="#72243e">lineage/contracts.ts</text>
  <text class="ts" x="34" y="356" fill="#72243e">a2a-protocol.ts</text>
  <text class="ts" x="34" y="374" fill="#72243e">mission/contracts.ts</text>
  <text class="ts" x="34" y="392" fill="#72243e">swarm.ts</text>
  <text class="ts" x="34" y="410" fill="#72243e">guest-agent-utils.ts</text>
  <text class="sm" x="100" y="454" text-anchor="middle" fill="#993556">contract modules</text>
  <text class="sm" x="100" y="468" text-anchor="middle" fill="#993556">representative examples shown</text>
  <line x1="180" y1="282" x2="214" y2="282" stroke="#ed93b1" stroke-width="0.5" stroke-dasharray="3 3" />
  <line x1="180" y1="322" x2="214" y2="322" stroke="#ed93b1" stroke-width="0.5" stroke-dasharray="3 3" />
  <line x1="180" y1="362" x2="214" y2="362" stroke="#ed93b1" stroke-width="0.5" stroke-dasharray="3 3" />
  <line x1="180" y1="402" x2="214" y2="402" stroke="#ed93b1" stroke-width="0.5" stroke-dasharray="3 3" />

  <rect x="20" y="514" width="160" height="136" rx="14" fill="#f8fafc" stroke="#d4d4d8" stroke-width="0.8" />
  <text class="th" x="100" y="538" text-anchor="middle" fill="#3f3f46">Runner strategy</text>
  <rect x="34" y="548" width="132" height="26" rx="6" fill="#eaf3de" stroke="#97c459" stroke-width="0.6" />
  <text class="ts" x="100" y="565" text-anchor="middle" fill="#27500a">DockerRunner (real)</text>
  <rect x="34" y="580" width="132" height="26" rx="6" fill="#e6f1fb" stroke="#85b7eb" stroke-width="0.6" />
  <text class="ts" x="100" y="597" text-anchor="middle" fill="#0c447c">NativeRunner (native)</text>
  <rect x="34" y="612" width="132" height="26" rx="6" fill="#eeedfe" stroke="#afa9ec" stroke-width="0.6" />
  <text class="ts" x="100" y="629" text-anchor="middle" fill="#3c3489">MockRunner (mock)</text>
  <line x1="166" y1="561" x2="214" y2="561" stroke="#97c459" stroke-width="0.8" marker-end="url(#a)" />

  <!-- ==================== ROW 4: WORKFLOW PIPELINE ==================== -->

  <rect x="20" y="680" width="1140" height="170" rx="16" fill="#f8fafc" stroke="#d4d4d8" stroke-width="0.8" />
  <text class="th" x="590" y="706" text-anchor="middle" fill="#3f3f46">10-stage workflow pipeline</text>

  <rect x="40" y="724" width="100" height="46" rx="8" fill="#eeedfe" stroke="#afa9ec" stroke-width="0.6" />
  <text class="ts" x="90" y="742" text-anchor="middle" fill="#3c3489">1. Assemble</text>
  <text class="xs" x="90" y="758" text-anchor="middle" fill="#534ab7">dynamic org</text>
  <line x1="140" y1="746" x2="156" y2="746" stroke="#afa9ec" stroke-width="0.8" marker-end="url(#a)" />

  <rect x="158" y="724" width="100" height="46" rx="8" fill="#eeedfe" stroke="#afa9ec" stroke-width="0.6" />
  <text class="ts" x="208" y="742" text-anchor="middle" fill="#3c3489">2. CEO split</text>
  <text class="xs" x="208" y="758" text-anchor="middle" fill="#534ab7">decompose</text>
  <line x1="258" y1="746" x2="274" y2="746" stroke="#afa9ec" stroke-width="0.8" marker-end="url(#a)" />

  <rect x="276" y="724" width="100" height="46" rx="8" fill="#eeedfe" stroke="#afa9ec" stroke-width="0.6" />
  <text class="ts" x="326" y="742" text-anchor="middle" fill="#3c3489">3. Mgr plan</text>
  <text class="xs" x="326" y="758" text-anchor="middle" fill="#534ab7">assign work</text>
  <line x1="376" y1="746" x2="392" y2="746" stroke="#afa9ec" stroke-width="0.8" marker-end="url(#a)" />

  <rect x="394" y="724" width="100" height="46" rx="8" fill="#e6f1fb" stroke="#85b7eb" stroke-width="0.6" />
  <text class="ts" x="444" y="742" text-anchor="middle" fill="#0c447c">4. Execute</text>
  <text class="xs" x="444" y="758" text-anchor="middle" fill="#185fa5">parallel work</text>
  <line x1="494" y1="746" x2="510" y2="746" stroke="#85b7eb" stroke-width="0.8" marker-end="url(#a)" />

  <rect x="512" y="724" width="100" height="46" rx="8" fill="#eaf3de" stroke="#97c459" stroke-width="0.6" />
  <text class="ts" x="562" y="742" text-anchor="middle" fill="#27500a">5. Review</text>
  <text class="xs" x="562" y="758" text-anchor="middle" fill="#3b6d11">score quality</text>
  <line x1="612" y1="746" x2="628" y2="746" stroke="#97c459" stroke-width="0.8" marker-end="url(#a)" />

  <rect x="630" y="724" width="82" height="46" rx="8" fill="#faeeda" stroke="#fac775" stroke-width="0.6" />
  <text class="ts" x="671" y="742" text-anchor="middle" fill="#633806">6. Audit</text>
  <text class="xs" x="671" y="758" text-anchor="middle" fill="#854f0b">meta check</text>
  <line x1="712" y1="746" x2="724" y2="746" stroke="#fac775" stroke-width="0.8" marker-end="url(#a)" />

  <rect x="726" y="724" width="82" height="46" rx="8" fill="#faece7" stroke="#f0997b" stroke-width="0.6" />
  <text class="ts" x="767" y="742" text-anchor="middle" fill="#712b13">7. Revise</text>
  <text class="xs" x="767" y="758" text-anchor="middle" fill="#993c1d">fix gaps</text>
  <line x1="808" y1="746" x2="820" y2="746" stroke="#f0997b" stroke-width="0.8" marker-end="url(#a)" />

  <rect x="822" y="724" width="82" height="46" rx="8" fill="#eaf3de" stroke="#97c459" stroke-width="0.6" />
  <text class="ts" x="863" y="742" text-anchor="middle" fill="#27500a">8. Verify</text>
  <text class="xs" x="863" y="758" text-anchor="middle" fill="#3b6d11">confirm</text>
  <line x1="904" y1="746" x2="916" y2="746" stroke="#97c459" stroke-width="0.8" marker-end="url(#a)" />

  <rect x="918" y="724" width="66" height="46" rx="8" fill="#e6f1fb" stroke="#85b7eb" stroke-width="0.6" />
  <text class="ts" x="951" y="742" text-anchor="middle" fill="#0c447c">9. Sum</text>
  <text class="xs" x="951" y="758" text-anchor="middle" fill="#185fa5">aggregate</text>
  <line x1="984" y1="746" x2="996" y2="746" stroke="#85b7eb" stroke-width="0.8" marker-end="url(#a)" />

  <rect x="998" y="724" width="86" height="46" rx="8" fill="#fbeaf0" stroke="#ed93b1" stroke-width="0.6" />
  <text class="ts" x="1041" y="742" text-anchor="middle" fill="#72243e">10. Evolve</text>
  <text class="xs" x="1041" y="758" text-anchor="middle" fill="#993556">learn + refine</text>

  <path d="M767 770 L767 810 L444 810 L444 770" fill="none" stroke="#d85a30" stroke-width="0.8" stroke-dasharray="4 3" marker-end="url(#a)" />
  <text class="sm" x="606" y="824" text-anchor="middle" fill="#993c1d">Score below threshold - revise and re-execute</text>

  <!-- ==================== ROW 5: DUAL RUNTIME ==================== -->

  <rect x="20" y="878" width="560" height="54" rx="14" fill="#f8fafc" stroke="#d4d4d8" stroke-width="0.8" />
  <text class="th" x="300" y="902" text-anchor="middle" fill="#3f3f46">Dual runtime</text>
  <rect x="34" y="886" width="236" height="30" rx="8" fill="#e6f1fb" stroke="#85b7eb" stroke-width="0.6" />
  <text class="ts" x="152" y="905" text-anchor="middle" fill="#0c447c">Frontend: Browser + IndexedDB + preview runtime</text>
  <rect x="282" y="886" width="284" height="30" rx="8" fill="#eaf3de" stroke="#97c459" stroke-width="0.6" />
  <text class="ts" x="424" y="905" text-anchor="middle" fill="#27500a">Advanced: Express + real/native executor + Socket.IO</text>

  <!-- ==================== FLOW LEGEND ==================== -->

  <rect x="20" y="956" width="1140" height="84" rx="10" fill="#f8fafc" stroke="#d4d4d8" stroke-width="0.5" />

  <circle cx="52" cy="978" r="5" fill="#eaf3de" stroke="#97c459" stroke-width="0.5" />
  <text class="sm" x="62" y="982" fill="#52525b">Server</text>
  <circle cx="124" cy="978" r="5" fill="#e6f1fb" stroke="#85b7eb" stroke-width="0.5" />
  <text class="sm" x="134" y="982" fill="#52525b">Frontend</text>
  <circle cx="206" cy="978" r="5" fill="#faeeda" stroke="#fac775" stroke-width="0.5" />
  <text class="sm" x="216" y="982" fill="#52525b">Intelligence</text>
  <circle cx="314" cy="978" r="5" fill="#faece7" stroke="#f0997b" stroke-width="0.5" />
  <text class="sm" x="324" y="982" fill="#52525b">Execution</text>
  <circle cx="412" cy="978" r="5" fill="#fbeaf0" stroke="#ed93b1" stroke-width="0.5" />
  <text class="sm" x="422" y="982" fill="#52525b">Contracts</text>
  <circle cx="512" cy="978" r="5" fill="#f0e6ff" stroke="#b794f4" stroke-width="0.5" />
  <text class="sm" x="522" y="982" fill="#52525b">Trust</text>
  <circle cx="590" cy="978" r="5" fill="#e6fffa" stroke="#38b2ac" stroke-width="0.5" />
  <text class="sm" x="600" y="982" fill="#52525b">Interop</text>
  <circle cx="668" cy="978" r="5" fill="#eeedfe" stroke="#afa9ec" stroke-width="0.5" />
  <text class="sm" x="678" y="982" fill="#52525b">Workflow</text>

  <line x1="52" y1="1006" x2="82" y2="1006" stroke="#d85a30" stroke-width="1" marker-end="url(#a)" />
  <text class="sm" x="92" y="1010" fill="#52525b">Data flow</text>
  <line x1="170" y1="1006" x2="200" y2="1006" stroke="#d85a30" stroke-width="0.8" stroke-dasharray="4 3" marker-end="url(#a)" />
  <text class="sm" x="210" y="1010" fill="#52525b">Callback / async</text>
  <line x1="324" y1="1006" x2="354" y2="1006" stroke="#ed93b1" stroke-width="0.5" stroke-dasharray="3 3" />
  <text class="sm" x="364" y="1010" fill="#52525b">Contract dependency</text>

  <text class="sm" x="770" y="1010" fill="#52525b">
    Numbered flows: ①-⑮ show the data path from user query to execution result
  </text>

  <text class="sm" x="590" y="1032" text-anchor="middle" fill="#94a3b8">
    2026-04-21 snapshot - 77 tracked specs - bottom launch dock restored - right Launch downgraded to guidance - wall HUD visibility fixed
  </text>
</svg>
