<?xml version="1.0" encoding="UTF-8"?>
<svg xmlns="http://www.w3.org/2000/svg" width="1600" height="1120" viewBox="0 0 1600 1120" role="img" aria-labelledby="title desc">
  <title id="title">UI Redesign 8 Spec Progress Overview 2026-04-27</title>
  <desc id="desc">Progress overview for 8 UI redesign specs. Current implementation progress is 0 of 232 sub-tasks. All 8 specs have complete documentation (requirements, design, tasks). Wave 1: 1 spec, Wave 2: 2 specs, Wave 3: 2 specs, Wave 4: 1 spec, Wave 5: 1 spec, Wave 6: 1 spec.</desc>
  <defs>
    <linearGradient id="bg" x1="0" y1="0" x2="0" y2="1">
      <stop offset="0%" stop-color="#f6f8fc"/>
      <stop offset="100%" stop-color="#eef3f8"/>
    </linearGradient>
    <linearGradient id="hero" x1="0" y1="0" x2="1" y2="1">
      <stop offset="0%" stop-color="#16233f"/>
      <stop offset="55%" stop-color="#243f84"/>
      <stop offset="100%" stop-color="#0f8f87"/>
    </linearGradient>
    <linearGradient id="heroBar" x1="0" y1="0" x2="1" y2="0">
      <stop offset="0%" stop-color="#8fd3ff"/>
      <stop offset="100%" stop-color="#7ce3cb"/>
    </linearGradient>
    <linearGradient id="readyFill" x1="0" y1="0" x2="1" y2="0">
      <stop offset="0%" stop-color="#27c281"/>
      <stop offset="100%" stop-color="#169b67"/>
    </linearGradient>
    <linearGradient id="todoFill" x1="0" y1="0" x2="1" y2="0">
      <stop offset="0%" stop-color="#f59e0b"/>
      <stop offset="100%" stop-color="#d97706"/>
    </linearGradient>
    <filter id="shadow" x="-20%" y="-20%" width="140%" height="140%">
      <feDropShadow dx="0" dy="14" stdDeviation="18" flood-color="#0f172a" flood-opacity="0.10"/>
    </filter>
    <style>
      .title { font: 700 32px "Segoe UI", "Microsoft YaHei", sans-serif; fill: #ffffff; }
      .subtitle { font: 500 15px "Segoe UI", "Microsoft YaHei", sans-serif; fill: rgba(255,255,255,0.86); }
      .hero-k { font: 600 12px "Segoe UI", "Microsoft YaHei", sans-serif; fill: rgba(255,255,255,0.72); }
      .hero-v { font: 700 29px "Segoe UI", "Microsoft YaHei", sans-serif; fill: #ffffff; }
      .card-title { font: 700 15px "Segoe UI", "Microsoft YaHei", sans-serif; fill: #0f172a; }
      .card-value { font: 700 21px "Segoe UI", "Microsoft YaHei", sans-serif; fill: #0f172a; }
      .card-meta { font: 500 12px "Segoe UI", "Microsoft YaHei", sans-serif; fill: #64748b; }
      .section-title { font: 700 18px "Segoe UI", "Microsoft YaHei", sans-serif; fill: #0f172a; }
      .section-meta { font: 500 12px "Segoe UI", "Microsoft YaHei", sans-serif; fill: #64748b; }
      .spec-title { font: 700 14px "Segoe UI", "Microsoft YaHei", sans-serif; fill: #0f172a; }
      .spec-slug { font: 500 10px "Segoe UI", "Microsoft YaHei", sans-serif; fill: #64748b; }
      .spec-task { font: 500 11px "Segoe UI", "Microsoft YaHei", sans-serif; fill: #475569; }
      .spec-badge-ready { font: 700 10px "Segoe UI", "Microsoft YaHei", sans-serif; fill: #15996a; }
      .spec-badge-todo { font: 700 10px "Segoe UI", "Microsoft YaHei", sans-serif; fill: #a16207; }
      .legend { font: 500 11px "Segoe UI", "Microsoft YaHei", sans-serif; fill: #64748b; }
      .foot { font: 500 12px "Segoe UI", "Microsoft YaHei", sans-serif; fill: #64748b; }
    </style>
  </defs>

  <!-- Background -->
  <rect x="0" y="0" width="1600" height="1120" fill="url(#bg)"/>

  <!-- ═══════════ Hero Banner ═══════════ -->
  <rect x="36" y="28" width="1528" height="194" rx="28" fill="url(#hero)" filter="url(#shadow)"/>
  <text x="60" y="78" class="title">UI 改造 8 个 Specs 实施进度总览</text>
  <text x="60" y="108" class="subtitle">统计时间: 2026-04-27 | 口径: 8 个 UI 改造 specs, requirements/design/tasks 三件套与 tasks.md 子任务</text>
  <text x="60" y="138" class="subtitle">当前状态: 8 个 specs 文档全部就绪, 待开始实施; 色板→导航→卡片→面板→发起→场景→指示器→回归</text>
  <text x="60" y="176" class="subtitle">口径提醒: specs 8 / 8, Markdown 32 / 32; 子任务 0 / 232; 依赖链 Wave 1→2→3→4→5→6 共 6 波次</text>

  <!-- Hero KPI pills -->
  <rect x="954" y="46" width="142" height="66" rx="18" fill="rgba(255,255,255,0.11)" stroke="rgba(255,255,255,0.18)"/>
  <text x="972" y="71" class="hero-k">Specs</text>
  <text x="972" y="101" class="hero-v">8 / 8</text>

  <rect x="1114" y="46" width="142" height="66" rx="18" fill="rgba(255,255,255,0.11)" stroke="rgba(255,255,255,0.18)"/>
  <text x="1132" y="71" class="hero-k">Markdown</text>
  <text x="1132" y="101" class="hero-v">32 / 32</text>

  <rect x="1274" y="46" width="220" height="66" rx="18" fill="rgba(255,255,255,0.11)" stroke="rgba(255,255,255,0.18)"/>
  <text x="1292" y="71" class="hero-k">子任务</text>
  <text x="1292" y="101" class="hero-v">0 / 232</text>

  <!-- Hero progress bar (0%) -->
  <rect x="954" y="138" width="540" height="10" rx="5" fill="rgba(255,255,255,0.18)"/>
  <rect x="954" y="138" width="0" height="10" rx="5" fill="url(#heroBar)"/>
  <text x="954" y="174" class="subtitle">文档完整率 100% | 实施完成率 0% | 6 个波次, 预估 4-6 周</text>

  <!-- ═══════════ Summary Cards ═══════════ -->
  <rect x="36" y="244" width="360" height="112" rx="22" fill="#ffffff" stroke="#dbe5f1" filter="url(#shadow)"/>
  <text x="58" y="278" class="card-title">UI 改造 specs</text>
  <text x="58" y="316" class="card-value">8 / 8</text>
  <text x="58" y="340" class="card-meta">全部包含 requirements / design / tasks 三件套</text>

  <rect x="416" y="244" width="360" height="112" rx="22" fill="#ffffff" stroke="#dbe5f1" filter="url(#shadow)"/>
  <text x="438" y="278" class="card-title">文档文件</text>
  <text x="438" y="316" class="card-value">32 / 32</text>
  <text x="438" y="340" class="card-meta">8 个目录, 每个 4 个文件 (.config + 3 markdown)</text>

  <rect x="796" y="244" width="360" height="112" rx="22" fill="#ffffff" stroke="#dbe5f1" filter="url(#shadow)"/>
  <text x="818" y="278" class="card-title">子任务完成</text>
  <text x="818" y="316" class="card-value">0 / 232</text>
  <text x="818" y="340" class="card-meta">整体完成率 0%, 按 tasks.md 子任务行统计</text>

  <rect x="1176" y="244" width="388" height="112" rx="22" fill="#ffffff" stroke="#dbe5f1" filter="url(#shadow)"/>
  <text x="1198" y="278" class="card-title">依赖与波次</text>
  <text x="1198" y="316" class="card-value">6 Waves</text>
  <text x="1198" y="340" class="card-meta">色板先行, 导航+指示器并行, 卡片+发起并行, 最后回归</text>

  <!-- Legend -->
  <circle cx="1192" cy="390" r="6" fill="#27c281"/>
  <text x="1206" y="394" class="legend">文档就绪</text>
  <circle cx="1294" cy="390" r="6" fill="#f59e0b"/>
  <text x="1308" y="394" class="legend">待实施</text>
  <circle cx="1388" cy="390" r="6" fill="#3b82f6"/>
  <text x="1402" y="394" class="legend">依赖前置 spec</text>

  <!-- ═══════════ Wave 1-2: 基础层 (3 specs) ═══════════ -->
  <text x="44" y="424" class="section-title">Wave 1-2 基础层: 色板 → 导航 + 指示器</text>
  <text x="480" y="424" class="section-meta">3 specs | 文档 12 / 12 | 子任务 0 / 90 | 当前 0%</text>

  <!-- Spec 1: Color Tokens -->
  <rect x="36" y="442" width="490" height="126" rx="18" fill="#ffffff" stroke="#cfdceb"/>
  <rect x="52" y="454" width="58" height="18" rx="9" fill="#e8fbf2"/><text x="64" y="467" class="spec-badge-ready">文档就绪</text>
  <rect x="118" y="454" width="50" height="18" rx="9" fill="#fef3c7"/><text x="128" y="467" class="spec-badge-todo">待实施</text>
  <text x="494" y="470" text-anchor="end" class="card-value" style="font-size:18px;">0%</text>
  <text x="52" y="500" class="spec-title">#1 色板与设计令牌</text>
  <text x="52" y="520" class="spec-slug">ui-redesign-color-and-tokens | Wave 1 | 无依赖</text>
  <text x="52" y="540" class="spec-task">子任务 0 / 38 | OKLCH 冷灰替换, glass-panel, studio/workspace, splitter, 暗色占位</text>
  <rect x="52" y="548" width="418" height="6" rx="3" fill="#e5ebf3"/>

  <!-- Spec 2: Sidebar Navigation -->
  <rect x="546" y="442" width="490" height="126" rx="18" fill="#ffffff" stroke="#cfdceb"/>
  <rect x="562" y="454" width="58" height="18" rx="9" fill="#e8fbf2"/><text x="574" y="467" class="spec-badge-ready">文档就绪</text>
  <rect x="628" y="454" width="50" height="18" rx="9" fill="#fef3c7"/><text x="638" y="467" class="spec-badge-todo">待实施</text>
  <text x="1004" y="470" text-anchor="end" class="card-value" style="font-size:18px;">0%</text>
  <text x="562" y="500" class="spec-title">#2 左侧垂直导航栏</text>
  <text x="562" y="520" class="spec-slug">ui-redesign-sidebar-navigation | Wave 2 | 依赖 #1</text>
  <text x="562" y="540" class="spec-task">子任务 0 / 40 | AppSidebar, MobileTabBar, App.tsx 布局, Scene3D 协调</text>
  <rect x="562" y="548" width="418" height="6" rx="3" fill="#e5ebf3"/>

  <!-- Spec 7: Status Indicators -->
  <rect x="1056" y="442" width="508" height="126" rx="18" fill="#ffffff" stroke="#cfdceb"/>
  <rect x="1072" y="454" width="58" height="18" rx="9" fill="#e8fbf2"/><text x="1084" y="467" class="spec-badge-ready">文档就绪</text>
  <rect x="1138" y="454" width="50" height="18" rx="9" fill="#fef3c7"/><text x="1148" y="467" class="spec-badge-todo">待实施</text>
  <text x="1532" y="470" text-anchor="end" class="card-value" style="font-size:18px;">0%</text>
  <text x="1072" y="500" class="spec-title">#7 状态指示器卡片</text>
  <text x="1072" y="520" class="spec-slug">ui-redesign-status-indicators | Wave 2 | 依赖 #2</text>
  <text x="1072" y="540" class="spec-task">子任务 0 / 12 | Autopilot Control, Mission Control, driveState 映射</text>
  <rect x="1072" y="548" width="436" height="6" rx="3" fill="#e5ebf3"/>

  <!-- ═══════════ Wave 3: 内容层 (2 specs) ═══════════ -->
  <text x="44" y="612" class="section-title">Wave 3 内容层: 任务卡片 + 发起面板</text>
  <text x="440" y="612" class="section-meta">2 specs | 文档 8 / 8 | 子任务 0 / 65 | 当前 0%</text>

  <!-- Spec 3: Task Detail Cards -->
  <rect x="36" y="630" width="750" height="126" rx="18" fill="#ffffff" stroke="#cfdceb"/>
  <rect x="52" y="642" width="58" height="18" rx="9" fill="#e8fbf2"/><text x="64" y="655" class="spec-badge-ready">文档就绪</text>
  <rect x="118" y="642" width="50" height="18" rx="9" fill="#fef3c7"/><text x="128" y="655" class="spec-badge-todo">待实施</text>
  <text x="754" y="658" text-anchor="end" class="card-value" style="font-size:18px;">0%</text>
  <text x="52" y="688" class="spec-title">#3 任务详情卡片化布局</text>
  <text x="52" y="708" class="spec-slug">ui-redesign-task-detail-cards | Wave 3 | 依赖 #1, #2</text>
  <text x="52" y="728" class="spec-task">子任务 0 / 35 | HeaderCard, GoalCard, RouteCard, FleetCard, TakeoverCard, 视图切换</text>
  <rect x="52" y="736" width="678" height="6" rx="3" fill="#e5ebf3"/>

  <!-- Spec 5: Launch Panel -->
  <rect x="806" y="630" width="758" height="126" rx="18" fill="#ffffff" stroke="#cfdceb"/>
  <rect x="822" y="642" width="58" height="18" rx="9" fill="#e8fbf2"/><text x="834" y="655" class="spec-badge-ready">文档就绪</text>
  <rect x="888" y="642" width="50" height="18" rx="9" fill="#fef3c7"/><text x="898" y="655" class="spec-badge-todo">待实施</text>
  <text x="1532" y="658" text-anchor="end" class="card-value" style="font-size:18px;">0%</text>
  <text x="822" y="688" class="spec-title">#5 任务发起浮层面板</text>
  <text x="822" y="708" class="spec-slug">ui-redesign-launch-panel | Wave 3 | 依赖 #1, #2</text>
  <text x="822" y="728" class="spec-task">子任务 0 / 30 | LaunchPanelShell, ModeTabBar, GoalInput, CockpitGrid, OutputChips</text>
  <rect x="822" y="736" width="686" height="6" rx="3" fill="#e5ebf3"/>

  <!-- ═══════════ Wave 4-5: 深化层 (2 specs) ═══════════ -->
  <text x="44" y="800" class="section-title">Wave 4-5 深化层: 右侧面板 + 3D 场景适配</text>
  <text x="470" y="800" class="section-meta">2 specs | 文档 8 / 8 | 子任务 0 / 57 | 当前 0%</text>

  <!-- Spec 4: Right Info Panel -->
  <rect x="36" y="818" width="750" height="126" rx="18" fill="#ffffff" stroke="#cfdceb"/>
  <rect x="52" y="830" width="58" height="18" rx="9" fill="#e8fbf2"/><text x="64" y="843" class="spec-badge-ready">文档就绪</text>
  <rect x="118" y="830" width="50" height="18" rx="9" fill="#fef3c7"/><text x="128" y="843" class="spec-badge-todo">待实施</text>
  <text x="754" y="846" text-anchor="end" class="card-value" style="font-size:18px;">0%</text>
  <text x="52" y="876" class="spec-title">#4 右侧信息面板重排</text>
  <text x="52" y="896" class="spec-slug">ui-redesign-right-info-panel | Wave 4 | 依赖 #1, #3</text>
  <text x="52" y="916" class="spec-task">子任务 0 / 27 | TaskOverview, LiveProgress (ProgressRing), RecentActivity 时间线</text>
  <rect x="52" y="924" width="678" height="6" rx="3" fill="#e5ebf3"/>

  <!-- Spec 6: Scene Adaptation -->
  <rect x="806" y="818" width="758" height="126" rx="18" fill="#ffffff" stroke="#cfdceb"/>
  <rect x="822" y="830" width="58" height="18" rx="9" fill="#e8fbf2"/><text x="834" y="843" class="spec-badge-ready">文档就绪</text>
  <rect x="888" y="830" width="50" height="18" rx="9" fill="#fef3c7"/><text x="898" y="843" class="spec-badge-todo">待实施</text>
  <text x="1532" y="846" text-anchor="end" class="card-value" style="font-size:18px;">0%</text>
  <text x="822" y="876" class="spec-title">#6 3D 场景视口适配</text>
  <text x="822" y="896" class="spec-slug">ui-redesign-scene-adaptation | Wave 5 | 依赖 #2, #5</text>
  <text x="822" y="916" class="spec-task">子任务 0 / 30 | useContainerWidth, CameraController, FOV 补偿, WebGL 上下文保持</text>
  <rect x="822" y="924" width="686" height="6" rx="3" fill="#e5ebf3"/>

  <!-- ═══════════ Wave 6: 收尾 (1 spec) ═══════════ -->
  <text x="44" y="988" class="section-title">Wave 6 收尾: 响应式回归</text>
  <text x="310" y="988" class="section-meta">1 spec | 文档 4 / 4 | 子任务 0 / 20 | 当前 0% | 依赖 #1-#7 全部完成</text>

  <!-- Spec 8: Responsive Regression -->
  <rect x="36" y="1006" width="1528" height="80" rx="18" fill="#ffffff" stroke="#cfdceb"/>
  <rect x="52" y="1018" width="58" height="18" rx="9" fill="#e8fbf2"/><text x="64" y="1031" class="spec-badge-ready">文档就绪</text>
  <rect x="118" y="1018" width="50" height="18" rx="9" fill="#fef3c7"/><text x="128" y="1031" class="spec-badge-todo">待实施</text>
  <text x="1532" y="1034" text-anchor="end" class="card-value" style="font-size:18px;">0%</text>
  <text x="52" y="1058" class="spec-title">#8 响应式适配与回归收尾</text>
  <text x="340" y="1058" class="spec-slug">ui-redesign-responsive-regression | Wave 6 | 依赖 #1-#7</text>
  <text x="700" y="1058" class="spec-task">子任务 0 / 20 | 暖色残留扫描, 桌面/平板/移动端断点回归, 构建验证, 无障碍回归, 文档同步</text>
  <rect x="52" y="1068" width="1490" height="6" rx="3" fill="#e5ebf3"/>

  <!-- Footer -->
  <text x="60" y="1108" class="foot">Source: .kiro/specs/ui-redesign-* | Generated 2026-04-27 | 推荐执行顺序: Wave 1 色板 → Wave 2 导航+指示器 → Wave 3 卡片+发起 → Wave 4 面板 → Wave 5 场景 → Wave 6 回归</text>
</svg>